<svg width="424" height="720" viewBox="0 0 424 720" fill="none" xmlns="http://www.w3.org/2000/svg">
<g opacity="0.6" clip-path="url(#clip0_105_459)">
<path d="M261.028 205.33L260.541 205.61L65.0849 -132.92L65.5719 -133.2L261.028 205.33Z" fill="#D1D1D1"/>
<path d="M423.95 35.9L228.494 374.43L228.008 374.15L423.463 35.62L423.95 35.9Z" fill="#D1D1D1"/>
<path d="M253.415 612.935L99.7629 879.198L99.3299 878.948L252.982 612.685L253.415 612.935Z" fill="#D1D1D1"/>
<path d="M291.957 596.06L291.538 596.302L148.111 347.89L148.53 347.64L291.957 596.06Z" fill="#D1D1D1"/>
<path d="M196.085 711.208L196.163 711.348L228.684 767.673L293.883 767.673L293.961 767.533L326.482 711.208L293.883 654.742L228.684 654.742L228.606 654.882L196.085 711.208ZM229.004 767.111L196.725 711.208L229.004 655.304L293.555 655.304L325.835 711.208L293.555 767.111L229.004 767.111Z" fill="#D1D1D1"/>
<path d="M163.636 767.392L163.714 767.532L196.235 823.857L261.434 823.857L261.512 823.717L294.033 767.392L261.434 710.926L196.235 710.926L196.157 711.067L163.636 767.392ZM196.563 823.288L164.283 767.384L196.563 711.48L261.114 711.48L293.393 767.384L261.114 823.288L196.563 823.288Z" fill="#D1D1D1"/>
<path opacity="0.34" d="M-129.183 542.654L-128.964 543.028L-96.3101 599.588L-30.5731 599.588L-30.3541 599.213L2.29992 542.654L2.08093 542.279L-30.5731 485.72L-96.3101 485.72L-96.5291 486.095L-129.183 542.654ZM-95.4521 598.089L-127.458 542.654L-95.4521 487.218L-31.4391 487.218L0.566923 542.654L-31.4391 598.089L-95.4521 598.089Z" fill="#1814E5"/>
<path d="M-30.9791 767.392L-30.9011 767.532L1.62094 823.85L66.8199 823.85L66.8979 823.709L99.4189 767.384L99.3409 767.244L66.8199 710.919L1.62094 710.919L1.54293 711.059L-30.9791 767.392ZM1.94894 823.288L-30.3311 767.384L1.94894 711.48L66.4999 711.48L98.7709 767.384L66.4999 823.288L1.94894 823.288Z" fill="#D1D1D1"/>
<path d="M33.558 711.208L33.636 711.348L66.157 767.673L131.356 767.673L131.434 767.533L163.955 711.208L163.877 711.067L131.356 654.742L66.157 654.742L66.079 654.882L33.558 711.208ZM66.477 767.111L34.197 711.208L66.477 655.304L131.028 655.304L163.3 711.208L131.028 767.111L66.477 767.111Z" fill="#D1D1D1"/>
<path d="M0.551938 655.023L0.769926 655.397L33.424 711.957L99.1619 711.957L99.3799 711.582L132.034 655.023L131.816 654.648L99.1619 598.089L33.4239 598.089L33.2059 598.464L0.551938 655.023ZM34.2909 710.458L2.28393 655.023L34.2909 599.587L98.3029 599.587L130.309 655.023L98.3029 710.458L34.2909 710.458Z" fill="#D1D1D1"/>
<path d="M98.764 542.654L98.842 542.794L131.363 599.119L196.562 599.119L196.64 598.979L229.161 542.654L196.562 486.188L131.363 486.188L131.285 486.329L98.764 542.654ZM131.683 598.557L99.411 542.654L131.683 486.75L196.234 486.75L228.513 542.654L196.234 598.557L131.683 598.557Z" fill="#D1D1D1"/>
<path d="M66.311 598.838L66.389 598.979L98.911 655.304L164.11 655.304L164.188 655.163L196.709 598.838L196.631 598.698L164.11 542.373L98.911 542.373L98.833 542.513L66.311 598.838ZM99.239 654.742L66.967 598.838L99.239 542.935L163.79 542.935L196.069 598.838L163.79 654.742L99.239 654.742Z" fill="#D1D1D1"/>
<path d="M98.764 655.023L98.842 655.164L131.363 711.489L196.562 711.489L196.64 711.348L229.161 655.023L196.562 598.558L131.363 598.558L131.285 598.698L98.764 655.023ZM131.683 710.927L99.411 655.023L131.683 599.12L196.234 599.12L228.513 655.023L196.234 710.927L131.683 710.927Z" fill="#D1D1D1"/>
<path d="M-128.301 598.838L-128.223 598.979L-95.701 655.304L-30.5031 655.304L-30.425 655.163L2.09692 598.838L2.01895 598.698L-30.5031 542.373L-95.7011 542.373L-95.7801 542.513L-128.301 598.838ZM-95.381 654.742L-127.661 598.838L-95.381 542.935L-30.8301 542.935L1.44894 598.838L-30.83 654.742L-95.381 654.742Z" fill="#D1D1D1"/>
<path d="M-128.659 655.023L-128.581 655.164L-96.0601 711.489L-30.8611 711.489L-30.7831 711.348L1.73791 655.023L1.65991 654.883L-30.8611 598.558L-96.0601 598.558L-96.1381 598.698L-128.659 655.023ZM-95.7321 710.927L-128.012 655.023L-95.7321 599.12L-31.1811 599.12L1.0899 655.023L-31.1811 710.927L-95.7321 710.927Z" fill="#D1D1D1"/>
<path d="M-31.3211 486.469L-31.2431 486.61L1.27795 542.935L66.4769 542.935L66.5549 542.794L99.0759 486.469L98.9979 486.329L66.4769 430L1.27795 430L1.19995 430.14L-31.3211 486.469ZM1.60593 542.373L-30.666 486.469L1.60592 430.57L66.1569 430.57L98.4359 486.469L66.157 542.373L1.60593 542.373Z" fill="#D1D1D1"/>
<path d="M-63.767 542.654L-63.689 542.794L-31.167 599.119L34.031 599.119L34.11 598.979L66.631 542.654L66.553 542.513L34.031 486.188L-31.167 486.188L-31.245 486.329L-63.767 542.654ZM-30.847 598.557L-63.127 542.654L-30.847 486.75L33.704 486.75L65.983 542.654L33.704 598.557L-30.847 598.557Z" fill="#D1D1D1"/>
<path d="M-96.208 149.37L-96.13 149.51L-63.609 205.84L1.58997 205.84L1.66797 205.7L34.189 149.37L34.111 149.23L1.58996 92.9L-63.609 92.9L-63.687 93.0501L-96.208 149.37ZM-63.281 205.27L-95.56 149.37L-63.281 93.47L1.26995 93.47L33.549 149.37L1.26996 205.27L-63.281 205.27Z" fill="#D1D1D1"/>
<path opacity="0.3" d="M-129.198 205.55L-128.98 205.93L-96.326 262.49L-30.5881 262.49L-30.3701 262.11L2.28393 205.55L2.06595 205.18L-30.5881 148.62L-96.3261 148.62L-96.5441 149L-129.198 205.55ZM-95.459 260.99L-127.466 205.55L-95.4591 150.12L-31.4471 150.12L0.558927 205.55L-31.4471 260.99L-95.459 260.99Z" fill="#FFC300"/>
<path d="M-96.208 261.73L-96.13 261.87L-63.609 318.2L1.58997 318.2L1.66797 318.06L34.189 261.73L34.111 261.59L1.58996 205.27L-63.609 205.27L-63.687 205.41L-96.208 261.73ZM-63.281 317.63L-95.56 261.73L-63.281 205.83L1.26995 205.83L33.549 261.73L1.26996 317.63L-63.281 317.63Z" fill="#D1D1D1"/>
<path d="M-31.3301 261.73L-31.2521 261.87L1.26892 318.2L66.4679 318.2L66.5459 318.06L99.0669 261.73L98.9889 261.59L66.4679 205.27L1.26892 205.27L1.19091 205.41L-31.3301 261.73ZM1.5889 317.63L-30.6821 261.73L1.58889 205.83L66.1399 205.83L98.4199 261.73L66.1399 317.63L1.5889 317.63Z" fill="#D1D1D1"/>
<path d="M98.404 374.1L98.482 374.24L131.004 430.57L196.202 430.57L196.28 430.43L228.802 374.1L228.724 373.96L196.202 317.63L131.004 317.63L130.926 317.78L98.404 374.1ZM131.324 430L99.044 374.1L131.324 318.2L195.875 318.2L228.154 374.1L195.875 430L131.324 430Z" fill="#D1D1D1"/>
<path d="M-31.346 374.1L-31.268 374.24L1.254 430.57L66.452 430.57L66.53 430.43L99.052 374.1L98.974 373.96L66.452 317.63L1.25399 317.63L1.17599 317.78L-31.346 374.1ZM1.57401 430L-30.698 374.1L1.574 318.2L66.125 318.2L98.404 374.1L66.125 430L1.57401 430Z" fill="#D1D1D1"/>
<path d="M65.9919 205.55L66.0699 205.69L98.5909 262.02L163.79 262.02L163.868 261.88L196.39 205.55L196.312 205.41L163.79 149.09L98.5909 149.09L98.5129 149.23L65.9919 205.55ZM98.9109 261.46L66.6319 205.55L98.9109 149.65L163.462 149.65L195.742 205.55L163.462 261.46L98.9109 261.46Z" fill="#D1D1D1"/>
<path opacity="0.3" d="M33.004 261.73L33.222 262.11L65.876 318.67L131.614 318.67L131.832 318.29L164.486 261.73L164.268 261.36L131.614 204.8L65.876 204.8L65.658 205.17L33.004 261.73ZM66.735 317.17L34.729 261.73L66.7349 206.3L130.747 206.3L162.754 261.73L130.747 317.17L66.735 317.17Z" fill="#1814E5"/>
<path d="M130.841 317.92L130.919 318.06L163.44 374.38L228.639 374.38L228.717 374.24L261.238 317.92L228.639 261.45L163.44 261.45L163.362 261.59L130.841 317.92ZM163.768 373.82L131.489 317.92L163.768 262.01L228.319 262.01L260.598 317.92L228.319 373.82L163.768 373.82Z" fill="#D1D1D1"/>
<path d="M228.162 261.73L260.761 318.2L325.96 318.2L326.038 318.06L358.56 261.73L325.96 205.27L260.761 205.27L260.683 205.41L228.162 261.73ZM261.089 317.63L228.81 261.73L261.089 205.83L325.64 205.83L357.92 261.73L325.64 317.63L261.089 317.63Z" fill="#D1D1D1"/>
<path d="M195.711 317.92L195.789 318.06L228.31 374.38L293.509 374.38L293.587 374.24L326.108 317.92L293.509 261.45L228.31 261.45L228.232 261.59L195.711 317.92ZM228.638 373.82L196.366 317.92L228.638 262.01L293.189 262.01L325.468 317.92L293.189 373.82L228.638 373.82Z" fill="#D1D1D1"/>
<path d="M-63.757 430.28L-63.679 430.43L-31.158 486.75L34.041 486.75L34.119 486.61L66.641 430.28L66.563 430.14L34.041 373.82L-31.158 373.82L-31.236 373.96L-63.757 430.28ZM-30.838 486.188L-63.117 430.28L-30.838 374.38L33.713 374.38L65.993 430.28L33.713 486.188L-30.838 486.188Z" fill="#D1D1D1"/>
<path d="M33.5259 430.28L33.6039 430.43L66.1259 486.75L131.324 486.75L131.402 486.61L163.924 430.28L163.846 430.14L131.324 373.82L66.1259 373.82L66.0479 373.96L33.5259 430.28ZM66.4529 486.188L34.1739 430.28L66.4529 374.38L131.004 374.38L163.284 430.28L131.004 486.188L66.4529 486.188Z" fill="#D1D1D1"/>
<path d="M65.415 93.1899L65.634 93.5601L98.288 150.12L164.025 150.12L164.243 149.74L196.897 93.1899L196.679 92.8101L164.025 36.25L98.288 36.25L98.069 36.63L65.415 93.1899ZM99.146 148.62L67.14 93.1899L99.146 37.75L163.159 37.75L195.165 93.1899L163.159 148.62L99.146 148.62Z" fill="#D1D1D1"/>
<path d="M1.09799 93.1899L1.17599 93.33L33.697 149.65L98.896 149.65L98.974 149.51L131.495 93.1899L131.417 93.04L98.896 36.72L33.697 36.72L33.619 36.86L1.09799 93.1899ZM34.025 149.09L1.74499 93.1899L34.025 37.28L98.576 37.28L130.855 93.1899L98.576 149.09L34.025 149.09Z" fill="#D1D1D1"/>
<path d="M249.009 612.793C249.009 610.47 250.892 608.586 253.215 608.586C255.539 608.586 257.422 610.47 257.422 612.793C257.422 615.116 255.539 617 253.215 617C250.892 617 249.009 615.116 249.009 612.793Z" fill="#C5C8CD"/>
<path d="M191.855 205.55C191.855 203.23 193.739 201.35 196.062 201.35C198.385 201.35 200.269 203.23 200.269 205.55C200.269 207.88 198.385 209.76 196.062 209.76C193.739 209.76 191.855 207.88 191.855 205.55Z" fill="#C5C8CD"/>
<path d="M62.1049 430.29C62.1049 427.96 63.9889 426.08 66.3119 426.08C68.6349 426.08 70.5189 427.96 70.5189 430.29C70.5189 432.61 68.6349 434.49 66.3119 434.49C63.9889 434.49 62.1049 432.61 62.1049 430.29Z" fill="#C5C8CD"/>
</g>
<defs>
<clipPath id="clip0_105_459">
<rect width="1440" height="808" fill="white" transform="matrix(-4.37114e-08 -1 -1 4.37114e-08 424 1440)"/>
</clipPath>
</defs>
</svg>
