<svg width="1440" height="323" viewBox="0 0 1440 323" fill="none" xmlns="http://www.w3.org/2000/svg">
<g opacity="0.6" clip-path="url(#clip0_105_340)">
<path d="M1234.67 160.028L1234.39 159.541L1572.92 -35.9151L1573.2 -35.4281L1234.67 160.028Z" fill="#D1D1D1"/>
<path d="M1404.1 322.95L1065.57 127.494L1065.85 127.008L1404.38 322.463L1404.1 322.95Z" fill="#D1D1D1"/>
<path d="M827.065 152.415L560.802 -1.23695L561.052 -1.66997L827.315 151.982L827.065 152.415Z" fill="#D1D1D1"/>
<path d="M843.94 190.957L843.698 190.538L1092.11 47.111L1092.36 47.53L843.94 190.957Z" fill="#D1D1D1"/>
<path d="M391.693 62.29L391.552 62.368L335.227 94.889V160.088L335.368 160.166L391.693 192.688L448.158 160.088V94.889L448.018 94.811L391.693 62.29ZM335.789 95.217L391.693 62.938L447.596 95.217V159.768L391.693 192.04L335.789 159.768V95.217Z" fill="#D1D1D1"/>
<path d="M616.431 -2.57997L616.29 -2.502L559.965 30.019V95.218L560.106 95.296L616.431 127.817L616.571 127.739L672.896 95.218V30.019L672.756 29.941L616.431 -2.57997ZM560.527 30.339L616.431 -1.93999L672.335 30.339V94.89L616.431 127.17L560.527 94.89V30.339Z" fill="#D1D1D1"/>
<path d="M560.247 -2.78302L559.872 -2.56503L503.313 30.089V95.827L503.687 96.045L560.247 128.699L617.18 95.827V30.089L616.806 29.871L560.247 -2.78302ZM504.811 30.956L560.247 -1.05103L615.682 30.956V94.968L560.247 126.974L504.811 94.968V30.956Z" fill="#D1D1D1"/>
<path d="M728.792 95.085L728.652 95.163L672.327 127.684V192.883L672.467 192.961L728.792 225.482L785.258 192.883V127.684L785.118 127.606L728.792 95.085ZM672.889 128.004L728.792 95.725L784.696 128.004V192.555L728.792 224.835L672.889 192.555V128.004Z" fill="#D1D1D1"/>
<path d="M672.608 62.6359L672.468 62.7139L616.143 95.235V160.434L616.283 160.512L672.608 193.033L729.074 160.434V95.235L728.933 95.157L672.608 62.6359ZM616.712 95.563L672.616 63.2829L728.52 95.563V160.114L672.616 192.393L616.712 160.114V95.563Z" fill="#D1D1D1"/>
<path d="M391.693 29.668L391.318 29.887L334.759 62.541V128.278L391.693 161.15L448.627 128.278V62.541L448.252 62.322L391.693 29.668ZM336.257 63.407L391.693 31.401L447.128 63.407V127.419L391.693 159.418L336.257 127.412V63.407Z" fill="#D1D1D1"/>
<path d="M335.508 -2.23598L335.368 -2.15797L279.042 30.363V95.562L279.183 95.64L335.508 128.161L391.974 95.562V30.363L391.833 30.285L335.508 -2.23598ZM279.604 30.683L335.508 -1.59599L391.412 30.683V95.234L335.508 127.513L279.604 95.234V30.683Z" fill="#D1D1D1"/>
<path d="M504.062 30.206L503.921 30.284L447.596 62.805V128.004L447.737 128.082L504.062 160.604L560.527 128.004V62.805L560.387 62.727L504.062 30.206ZM448.158 63.133L504.062 30.862L559.965 63.133V127.684L504.062 159.964L448.158 127.684V63.133Z" fill="#D1D1D1"/>
<path d="M504.062 95.085L503.921 95.163L447.596 127.684V192.883L447.737 192.961L504.062 225.482L560.527 192.883V127.684L560.387 127.606L504.062 95.085ZM448.158 128.004L504.062 95.725L559.965 128.004V192.555L504.062 224.835L448.158 192.555V128.004Z" fill="#D1D1D1"/>
<path d="M447.877 -67.1089L447.736 -67.0299L391.411 -34.5089V30.6901L391.552 30.7681L447.877 63.2891L448.017 63.2111L504.342 30.6901V-34.5089L504.202 -34.5869L447.877 -67.1089ZM391.973 -34.1809L447.877 -66.4529L503.781 -34.1809V30.3701L447.877 62.649L391.973 30.3701V-34.1809Z" fill="#D1D1D1"/>
<path d="M728.792 -67.442L728.652 -67.364L672.327 -34.843V30.356L672.467 30.434L728.792 62.955L728.933 62.877L785.258 30.356V-34.843L785.118 -34.921L728.792 -67.442ZM672.889 -34.523L728.792 -66.803L784.696 -34.523V30.028L728.792 62.3L672.889 30.028V-34.523Z" fill="#D1D1D1"/>
<path d="M784.977 -100.448L784.603 -100.23L728.043 -67.576V-1.83807L728.418 -1.62006L784.977 31.0339L785.352 30.8159L841.911 -1.83807V-67.576L841.536 -67.7941L784.977 -100.448ZM729.542 -66.7091L784.977 -98.7161L840.413 -66.7091V-2.69705L784.977 29.3089L729.542 -2.69705V-66.7091Z" fill="#D1D1D1"/>
<path d="M897.346 -2.23598L897.206 -2.15797L840.881 30.363V95.562L841.021 95.64L897.346 128.161L953.812 95.562V30.363L953.671 30.285L897.346 -2.23598ZM841.443 30.683L897.346 -1.58897L953.25 30.683V95.234L897.346 127.513L841.443 95.234V30.683Z" fill="#D1D1D1"/>
<path d="M841.162 -34.689L841.021 -34.611L784.696 -2.089V63.11L784.837 63.188L841.162 95.709L841.302 95.631L897.627 63.11V-2.089L897.487 -2.16701L841.162 -34.689ZM785.258 -1.761L841.162 -34.033L897.065 -1.761V62.79L841.162 95.069L785.258 62.79V-1.761Z" fill="#D1D1D1"/>
<path d="M784.977 -2.23598L784.836 -2.15797L728.511 30.363V95.562L728.652 95.64L784.977 128.161L841.442 95.562V30.363L841.302 30.285L784.977 -2.23598ZM729.073 30.683L784.977 -1.58897L840.88 30.683V95.234L784.977 127.513L729.073 95.234V30.683Z" fill="#D1D1D1"/>
<path d="M1065.9 -2.59601L1065.76 -2.51801L1009.43 30.004V95.202L1009.57 95.28L1065.9 127.802L1066.04 127.724L1122.37 95.202V30.004L1122.22 29.926L1065.9 -2.59601ZM1010 30.324L1065.9 -1.95599L1121.8 30.324V94.875L1065.9 127.154L1010 94.875V30.324Z" fill="#D1D1D1"/>
<path d="M1234.45 -35.008L1234.31 -34.93L1177.98 -2.40898V62.79L1178.12 62.868L1234.45 95.39L1234.59 95.312L1290.91 62.79V-2.40898L1290.77 -2.48698L1234.45 -35.008ZM1178.54 -2.08897L1234.45 -34.368L1290.35 -2.08897V62.462L1234.45 94.742L1178.54 62.462V-2.08897Z" fill="#D1D1D1"/>
<path opacity="0.3" d="M1178.27 -67.996L1177.89 -67.778L1121.33 -35.124V30.614L1121.71 30.832L1178.27 63.486L1178.64 63.268L1235.2 30.614V-35.124L1234.83 -35.342L1178.27 -67.996ZM1122.83 -34.265L1178.27 -66.271L1233.7 -34.265V29.747L1178.27 61.754L1122.83 29.747V-34.265Z" fill="#1814E5"/>
<path d="M1122.08 29.841L1121.94 29.919L1065.62 62.44V127.639L1065.76 127.717L1122.08 160.238L1178.55 127.639V62.44L1178.41 62.362L1122.08 29.841ZM1066.18 62.768L1122.08 30.489L1177.99 62.768V127.319L1122.08 159.598L1066.18 127.319V62.768Z" fill="#D1D1D1"/>
<path d="M1178.27 127.162L1121.8 159.761V224.96L1121.94 225.038L1178.27 257.56L1234.73 224.96V159.761L1234.59 159.683L1178.27 127.162ZM1122.37 160.089L1178.27 127.81L1234.17 160.089V224.64L1178.27 256.92L1122.37 224.64V160.089Z" fill="#D1D1D1"/>
<path d="M1122.08 94.711L1121.94 94.789L1065.62 127.31V192.509L1065.76 192.587L1122.08 225.108L1178.55 192.509V127.31L1178.41 127.232L1122.08 94.711ZM1066.18 127.638L1122.08 95.366L1177.99 127.638V192.189L1122.08 224.468L1066.18 192.189V127.638Z" fill="#D1D1D1"/>
<path d="M1009.72 -67.4739L1009.57 -67.3959L953.25 -34.8739V30.3241L953.39 30.4021L1009.72 62.9241L1009.86 62.8461L1066.18 30.3241V-34.8739L1066.04 -34.9519L1009.72 -67.4739ZM953.812 -34.5469L1009.72 -66.8259L1065.62 -34.5469V30.0041L1009.72 62.2841L953.812 30.0041V-34.5469Z" fill="#D1D1D1"/>
<path d="M1346.81 -35.585L1346.44 -35.366L1289.88 -2.71204V63.025L1290.26 63.243L1346.81 95.897L1347.19 95.679L1403.75 63.025V-2.71204L1403.37 -2.93103L1346.81 -35.585ZM1291.38 -1.85403L1346.81 -33.86L1402.25 -1.85403V62.159L1346.81 94.165L1291.38 62.159V-1.85403Z" fill="#D1D1D1"/>
<path d="M1346.81 -99.902L1346.67 -99.824L1290.35 -67.303V-2.104L1290.49 -2.026L1346.81 30.495L1346.96 30.417L1403.28 -2.104V-67.303L1403.14 -67.381L1346.81 -99.902ZM1290.91 -66.975L1346.81 -99.255L1402.72 -66.975V-2.42401L1346.81 29.855L1290.91 -2.42401V-66.975Z" fill="#D1D1D1"/>
<path d="M447.877 -99.184L447.736 -99.106L391.411 -66.584V-1.38599L391.552 -1.30701L447.877 31.214L448.017 31.136L504.342 -1.38599V-66.584L504.202 -66.662L447.877 -99.184ZM391.973 -66.264L447.877 -98.536L503.781 -66.264V-1.71301L447.877 30.558L391.973 -1.71301V-66.264Z" fill="#D1D1D1"/>
<path d="M114.898 -8.15106C117.221 -8.15106 119.105 -6.26706 119.105 -3.94406C119.105 -1.62106 117.221 0.262939 114.898 0.262939C112.575 0.262939 110.691 -1.62106 110.691 -3.94406C110.691 -6.26706 112.575 -8.15106 114.898 -8.15106Z" fill="#C5C8CD"/>
<path d="M827.207 148.009C829.53 148.009 831.414 149.892 831.414 152.215C831.414 154.539 829.53 156.422 827.207 156.422C824.884 156.422 823 154.539 823 152.215C823 149.892 824.884 148.009 827.207 148.009Z" fill="#C5C8CD"/>
<path d="M1234.45 90.855C1236.77 90.855 1238.65 92.739 1238.65 95.062C1238.65 97.385 1236.77 99.269 1234.45 99.269C1232.12 99.269 1230.24 97.385 1230.24 95.062C1230.24 92.739 1232.12 90.855 1234.45 90.855Z" fill="#C5C8CD"/>
<path d="M395.899 30.5359C395.899 28.2099 394.018 26.3289 391.692 26.3289C389.366 26.3289 387.486 28.2099 387.486 30.5359C387.486 32.8609 389.366 34.7419 391.692 34.7419C394.018 34.7419 395.899 32.8539 395.899 30.5359Z" fill="#C5C8CD"/>
</g>
<defs>
<clipPath id="clip0_105_340">
<rect width="1440" height="808" fill="white" transform="matrix(1 0 0 -1 0 323)"/>
</clipPath>
</defs>
</svg>
